<?xml version="1.0" standalone="no"?>
<!DOCTYPE svg PUBLIC "-//W3C//DTD SVG 20010904//EN"
 "http://www.w3.org/TR/2001/REC-SVG-20010904/DTD/svg10.dtd">
<svg version="1.0" xmlns="http://www.w3.org/2000/svg"
 width="1024.000000pt" height="1024.000000pt" viewBox="0 0 1024.000000 1024.000000"
 preserveAspectRatio="xMidYMid meet">
<metadata>
Created by potrace 1.14, written by Peter Selinger 2001-2017
</metadata>
<g transform="translate(0.000000,1024.000000) scale(0.100000,-0.100000)"
fill="#000000" stroke="none">
<path d="M1630 9689 c-273 -23 -531 -144 -732 -343 -98 -96 -162 -187 -229
-321 -70 -142 -105 -268 -119 -434 -7 -78 -10 -1245 -8 -3556 l3 -3440 23
-100 c111 -486 468 -832 960 -932 82 -17 279 -18 3592 -18 3313 0 3510 1 3592
18 491 100 849 447 960 932 l22 100 4 3440 c2 2312 -1 3478 -8 3556 -14 166
-49 292 -119 434 -68 137 -130 223 -234 324 -210 206 -452 317 -747 341 -141
12 -6822 11 -6960 -1z m849 -3204 c103 -29 158 -97 192 -235 18 -74 15 -271
-5 -395 -33 -195 -106 -453 -188 -660 -51 -130 -146 -320 -170 -342 -27 -24
-106 -21 -162 7 -53 25 -106 82 -106 112 0 11 17 49 39 82 172 273 361 816
361 1038 0 173 -84 224 -218 132 -277 -192 -687 -1037 -768 -1586 -20 -136
-15 -296 12 -378 55 -165 221 -203 440 -101 137 65 228 134 404 311 143 143
328 358 338 393 23 76 152 378 218 510 131 260 142 274 218 257 68 -15 125
-65 126 -108 0 -13 -38 -104 -85 -202 -47 -98 -85 -182 -85 -187 0 -4 39 51
87 122 92 139 97 145 128 145 20 0 168 -55 213 -79 39 -21 43 -50 27 -198 -22
-201 -20 -315 4 -344 24 -30 32 -22 56 51 24 78 100 241 156 335 96 164 216
303 314 368 57 37 64 38 125 35 57 -3 76 -10 156 -56 163 -94 178 -129 125
-292 -54 -167 -163 -351 -246 -414 -83 -64 -200 -85 -281 -51 -34 14 -35 14
-45 -13 -39 -101 -66 -272 -50 -315 9 -23 16 -27 47 -27 126 0 455 325 621
612 25 44 53 83 62 85 9 3 34 29 55 59 114 158 244 264 323 264 44 0 126 -34
198 -82 44 -29 64 -37 75 -30 8 5 41 40 72 79 63 77 100 99 152 89 51 -10 128
-65 151 -109 l20 -37 -38 -73 c-174 -330 -235 -470 -262 -604 -20 -99 -12
-129 31 -112 70 26 137 106 277 329 101 161 131 220 230 450 41 96 100 228
131 294 31 65 56 119 56 120 0 1 -28 1 -62 -1 -321 -17 -546 -76 -761 -198
-95 -55 -99 -56 -135 -44 -39 13 -132 101 -156 147 -46 93 -26 118 140 172
318 103 662 160 980 160 l121 0 38 58 c47 71 113 157 153 200 22 24 39 32 64
32 66 0 218 -113 233 -172 6 -24 0 -36 -45 -84 l-51 -57 133 -27 c73 -15 151
-35 173 -44 105 -44 185 -189 185 -337 0 -56 -12 -82 -41 -92 -13 -4 -18 3
-23 33 -13 82 -144 156 -363 205 -56 13 -131 26 -166 30 l-64 7 -60 -103
c-216 -370 -408 -912 -467 -1320 -21 -141 -21 -319 0 -390 18 -59 79 -129 114
-129 33 0 22 -17 -22 -35 -53 -21 -125 -13 -189 22 -138 74 -219 228 -219 415
0 83 18 240 36 315 6 23 -16 6 -114 -90 -127 -124 -179 -157 -247 -157 -74 0
-175 63 -211 132 -8 15 -14 51 -14 80 0 51 21 184 35 221 14 34 -4 16 -75 -80
-130 -174 -140 -187 -221 -275 -92 -100 -120 -114 -203 -96 -90 19 -172 72
-203 131 -11 22 -14 45 -9 81 l6 50 -83 -81 c-82 -81 -208 -178 -279 -214 -47
-24 -90 -24 -169 1 -117 36 -227 128 -255 212 -13 42 -16 75 -11 170 l5 118
-53 0 c-66 0 -176 33 -212 64 -27 24 -28 27 -31 146 l-4 122 -36 -43 c-194
-225 -328 -471 -403 -739 -34 -122 -52 -144 -108 -134 -48 9 -121 46 -150 78
-21 22 -23 32 -18 78 3 29 9 69 13 88 6 33 -1 27 -117 -88 -322 -322 -600
-453 -889 -421 -117 13 -181 41 -249 108 -111 108 -160 248 -168 481 -9 242
34 492 133 787 141 418 335 762 554 983 160 161 331 263 490 294 43 8 157 -2
219 -19z m6417 -770 c36 -27 92 -107 101 -144 5 -19 -2 -30 -37 -59 -59 -49
-180 -190 -233 -271 -62 -93 -92 -167 -92 -224 l0 -49 -34 6 c-19 3 -50 18
-69 33 -76 61 -90 142 -47 260 13 37 22 69 20 71 -7 7 -60 -27 -87 -55 -35
-36 -75 -125 -88 -193 -17 -89 -12 -219 10 -265 34 -73 24 -75 191 37 230 155
302 197 376 224 80 28 113 25 196 -19 77 -40 77 -48 0 -51 -52 -3 -151 -51
-306 -150 -124 -80 -300 -207 -311 -225 -4 -6 11 -40 33 -76 73 -122 77 -210
13 -338 -42 -85 -164 -212 -255 -266 -156 -92 -331 -101 -465 -24 -83 47 -103
143 -53 248 56 119 162 235 348 383 53 41 80 69 75 76 -5 6 -36 47 -70 91 -85
112 -113 179 -119 285 -10 169 42 297 172 427 63 62 91 83 119 89 60 11 136
-5 214 -43 40 -20 74 -34 76 -32 1 2 22 33 46 68 24 36 77 100 118 143 84 88
95 91 158 43z m-1312 -102 c41 -21 76 -62 76 -90 0 -13 -39 -105 -86 -205 -47
-99 -84 -181 -82 -183 2 -2 39 51 83 117 93 141 99 148 128 148 21 0 169 -54
215 -79 39 -21 43 -50 27 -198 -8 -76 -15 -180 -15 -231 0 -92 1 -95 30 -122
33 -31 38 -55 14 -64 -58 -22 -229 13 -281 58 -27 24 -28 27 -31 146 l-4 122
-36 -43 c-198 -229 -336 -488 -412 -769 -24 -90 -46 -113 -99 -104 -47 9 -109
40 -143 72 -35 33 -35 56 -2 213 14 67 23 123 21 126 -3 2 -27 10 -54 17 l-49
13 -53 -102 c-91 -177 -195 -284 -294 -305 -131 -26 -368 93 -427 215 -46 95
-32 258 39 441 51 132 136 256 208 305 20 14 21 19 13 87 -16 120 12 202 80
237 46 24 147 29 224 11 87 -21 152 -56 210 -114 60 -59 85 -117 99 -222 9
-76 8 -104 -12 -226 -12 -76 -24 -151 -27 -165 -6 -25 -3 -28 42 -37 27 -6 49
-10 49 -9 1 1 16 47 34 102 54 168 147 393 240 582 104 211 134 261 164 272
26 11 71 4 111 -16z"/>
<path d="M4169 5273 c-65 -71 -167 -221 -219 -322 l-20 -41 30 0 c69 0 172
139 220 297 26 87 23 103 -11 66z"/>
<path d="M4954 5182 c-31 -25 -111 -126 -160 -204 -76 -119 -152 -280 -180
-382 l-13 -49 50 49 c69 67 197 222 302 366 91 126 100 152 77 212 -11 31 -44
34 -76 8z"/>
<path d="M8192 4385 c-46 -44 -103 -106 -127 -137 -44 -59 -91 -146 -83 -154
11 -10 65 19 116 63 94 81 187 224 180 281 -3 26 -6 24 -86 -53z"/>
<path d="M6654 5225 c-26 -59 -23 -179 8 -275 l25 -75 13 45 c15 56 8 235 -13
300 l-14 45 -19 -40z"/>
<path d="M6457 4843 c-52 -100 -114 -388 -102 -475 l7 -48 30 17 c62 37 142
136 194 242 l52 105 -56 50 c-30 28 -68 71 -83 94 l-28 44 -14 -29z"/>
</g>
</svg>
